#!OML:ASF E:\inclinewalkrobotboard\Project 1\Capture day 1\Session 1\subject1.ASF
:FULLY-SPECIFIED
:DEGREES
315
root 10.6864 16.4394 10.6236 17.9538 -82.7562 1.46977
lowerback 5.50575 -0.680903 -14.2787
upperback 2.41335 -1.69518 -0.305976
thorax -0.132554 -0.992588 7.78903
lowerneck 2.50191 -11.673 -5.13381
upperneck -13.8368 -14.7765 16.4161
head -2.81223 -8.15011 6.10736
rclavicle -3.97569e-016 -1.35174e-014
rhumerus -44.5522 -39.0971 -48.0615
rradius 74.7343
rwrist -36.2018
rhand -12.8996 -25.9125
rfingers 7.12502
rthumb 13.1899 -55.4752
lclavicle -3.97569e-016 -1.35174e-014
lhumerus -27.0407 -40.2703 107.811
lradius 98.459
lwrist -7.23364
lhand -55.0833 -34.4494
lfingers 7.12502
lthumb -27.4598 -6.43107
rfemur -11.1616 5.27768 -9.93577
rtibia 5.96138
rfoot -0.812904 -45.0809
rtoes 36.1487
lfemur -30.5209 -1.33407 -8.01111
ltibia 18.0765
lfoot -12.2634 20.3728
ltoes -66.7458
316
root 10.6731 16.4397 10.6203 17.3787 -82.7405 2.03618
lowerback 5.48701 -0.65904 -14.3007
upperback 2.41005 -1.66547 -0.339842
thorax -0.133106 -0.97778 7.76322
lowerneck 2.75748 -11.5173 -4.88311
upperneck -14.3279 -14.5369 16.1586
head -3.06935 -8.05427 6.04984
rclavicle 1.59028e-014 -2.22639e-014
rhumerus -44.7407 -39.079 -47.8442
rradius 74.6574
rwrist -36.2708
rhand -12.8017 -25.7155
rfingers 7.12502
rthumb 13.2843 -55.2721
lclavicle 1.59028e-014 -2.22639e-014
lhumerus -27.0532 -40.4185 107.837
lradius 98.4852
lwrist -7.21202
lhand -55.2171 -34.6534
lfingers 7.12502
lthumb -27.5878 -6.65546
rfemur -11.0527 5.23736 -10.0219
rtibia 5.94375
rfoot -1.19659 -45.0046
rtoes 36.8049
lfemur -30.4319 -1.32048 -8.11271
ltibia 18.0161
lfoot -12.4838 20.2431
ltoes -66.5276
317
root 10.6583 16.4379 10.6169 17.5858 -82.5594 1.94038
lowerback 5.34051 -0.751077 -14.2141
upperback 2.39065 -1.75769 -0.308833
thorax -0.0514891 -1.02691 7.74765
lowerneck 2.45065 -11.4292 -4.61322
upperneck -14.2119 -14.4331 15.8384
head -3.04429 -7.98419 5.89089
rclavicle -6.75868e-015 -2.54444e-014
rhumerus -44.7491 -38.9886 -47.8158
rradius 74.5891
rwrist -36.4818
rhand -13.075 -25.3056
rfingers 7.12502
rthumb 13.0209 -54.8793
lclavicle -6.75868e-015 -2.54444e-014
lhumerus -26.9373 -40.4749 107.746
lradius 98.4862
lwrist -7.11804
lhand -55.3328 -34.9114
lfingers 7.12502
lthumb -27.6984 -6.9312
rfemur -10.9316 5.25484 -9.9877
rtibia 5.83887
rfoot -1.89218 -45.0463
rtoes 37.5349
lfemur -30.5512 -1.32599 -8.07139
ltibia 18.0235
lfoot -12.7629 19.9587
ltoes -66.1487
318
root 10.6438 16.4377 10.6107 19.0899 -82.6344 0.535917
lowerback 5.1186 -0.717581 -14.121
upperback 2.38762 -1.66894 -0.22835
thorax 0.0483362 -0.988155 7.77238
lowerneck 2.47724 -11.1672 -4.92918
upperneck -14.1962 -14.0851 15.935
head -3.04606 -7.80093 5.97141
rclavicle 7.15625e-015 3.49861e-014
rhumerus -44.8356 -38.9778 -47.7475
rradius 74.6277
rwrist -36.5686
rhand -13.5325 -24.9423
rfingers 7.12502
rthumb 12.5798 -54.5436
lclavicle 7.15625e-015 3.49861e-014
lhumerus -26.7396 -40.6178 107.7
lradius 98.4518
lwrist -7.08914
lhand -55.2899 -34.9244
lfingers 7.12502
lthumb -27.6574 -6.93762
rfemur -11.0699 5.45928 -9.78735
rtibia 5.88287
rfoot -2.33192 -45.0348
rtoes 37.9044
lfemur -30.5548 -1.18816 -7.82212
ltibia 17.9862
lfoot -13.1608 19.8238
ltoes -65.6745
319
root 10.6309 16.4375 10.6037 19.84 -82.8083 -0.182759
lowerback 4.98096 -0.595053 -14.1313
upperback 2.39566 -1.4829 -0.1995
thorax 0.0912371 -0.899001 7.79894
lowerneck 2.42818 -11.0278 -4.36211
upperneck -14.4437 -13.8874 15.4032
head -3.22119 -7.70695 5.74824
rclavicle 2.54444e-014 5.88403e-014
rhumerus -45.0774 -39.0847 -47.5133
rradius 74.6854
rwrist -36.5654
rhand -13.7666 -24.7344
rfingers 7.12502
rthumb 12.3542 -54.3494
lclavicle 2.54444e-014 5.88403e-014
lhumerus -26.6677 -40.8633 107.814
lradius 98.4393
lwrist -7.12452
lhand -55.1615 -34.6337
lfingers 7.12502
lthumb -27.5346 -6.62726
rfemur -11.222 5.59023 -9.69809
rtibia 5.98469
rfoot -2.30101 -44.9947
rtoes 37.874
lfemur -30.46 -1.01739 -7.70242
ltibia 17.9457
lfoot -13.2847 19.8717
ltoes -65.5412
320
root 10.6227 16.4371 10.6042 18.7687 -82.6827 0.857237
lowerback 5.1046 -0.57824 -14.2144
upperback 2.36325 -1.48712 -0.182875
thorax -0.00850395 -0.893248 7.8675
lowerneck 2.56204 -10.8496 -3.17472
upperneck -14.9732 -13.6312 14.3471
head -3.60553 -7.59786 5.31085
rclavicle -2.90226e-014 -3.18055e-014
rhumerus -45.2767 -39.1487 -47.2411
rradius 74.6916
rwrist -36.5993
rhand -13.8769 -24.6893
rfingers 7.12502
rthumb 12.2478 -54.3107
lclavicle -2.90226e-014 -3.18055e-014
lhumerus -26.7632 -40.9697 108.078
lradius 98.4209
lwrist -7.19264
lhand -55.1628 -34.3654
lfingers 7.12502
lthumb -27.5359 -6.3592
rfemur -11.0567 5.43331 -9.79595
rtibia 5.98529
rfoot -2.1941 -44.9708
rtoes 37.7463
lfemur -30.5099 -1.02641 -7.86919
ltibia 18.0738
lfoot -13.3343 19.7015
ltoes -65.481
321
root 10.6174 16.4373 10.6088 17.3109 -82.3415 2.29706
lowerback 5.33007 -0.63785 -14.316
upperback 2.29459 -1.61211 -0.129603
thorax -0.172935 -0.940912 7.99421
lowerneck 2.90281 -10.6324 -2.57726
upperneck -15.4798 -13.3268 13.6683
head -3.9413 -7.45982 5.07825
rclavicle 1.70955e-014 -4.77083e-015
rhumerus -45.4486 -39.063 -46.9343
rradius 74.6728
rwrist -36.6686
rhand -13.7372 -24.8217
rfingers 7.12502
rthumb 12.3825 -54.435
lclavicle 1.70955e-014 -4.77083e-015
lhumerus -26.9282 -40.9789 108.416
lradius 98.4035
lwrist -7.25646
lhand -55.2802 -34.5178
lfingers 7.12502
lthumb -27.6482 -6.52959
rfemur -10.7393 5.27004 -9.92623
rtibia 5.91435
rfoot -2.81344 -45.013
rtoes 38.4407
lfemur -30.7109 -1.21587 -8.09864
ltibia 18.3142
lfoot -13.3252 19.4854
ltoes -65.52
322
root 10.6122 16.437 10.6114 17.0133 -82.0176 2.65062
lowerback 5.39953 -0.707891 -14.2202
upperback 2.24405 -1.71344 -0.0966095
thorax -0.243684 -0.982355 7.98276
lowerneck 3.28557 -10.3956 -2.37911
upperneck -15.88 -13.0093 13.1974
head -4.20401 -7.30218 4.95716
rclavicle 1.74931e-014 -2.46493e-014
rhumerus -45.5926 -38.9781 -46.6814
rradius 74.6234
rwrist -36.7464
rhand -13.3572 -24.8601
rfingers 7.12502
rthumb 12.7488 -54.4509
lclavicle 1.74931e-014 -2.46493e-014
lhumerus -26.9941 -40.9966 108.628
lradius 98.3625
lwrist -7.22244
lhand -55.0977 -34.9483
lfingers 7.12502
lthumb -27.4736 -6.93214
rfemur -10.5483 5.19174 -9.90365
rtibia 5.84824
rfoot -3.32731 -45.117
rtoes 38.9012
lfemur -30.9648 -1.40348 -8.13654
ltibia 18.5177
lfoot -13.1578 19.4244
ltoes -65.7531
323
root 10.6064 16.4368 10.6108 17.6141 -81.8645 2.0981
lowerback 5.38111 -0.735748 -14.0621
upperback 2.21385 -1.73931 -0.0562938
thorax -0.263798 -0.990515 7.93822
lowerneck 3.00693 -10.3231 -1.13116
upperneck -15.9897 -12.9155 12.3325
head -4.35619 -7.26615 4.50906
rclavicle 1.55052e-014 4.21423e-014
rhumerus -45.6163 -38.9659 -46.5321
rradius 74.5644
rwrist -36.8237
rhand -13.3059 -24.8477
rfingers 7.12502
rthumb 12.7983 -54.4354
lclavicle 1.55052e-014 4.21423e-014
lhumerus -26.9756 -40.9717 108.747
lradius 98.3147
lwrist -7.13293
lhand -54.8281 -35.194
lfingers 7.12502
lthumb -27.2158 -7.13718
rfemur -10.5113 5.12619 -9.76056
rtibia 5.851
rfoot -3.1665 -45.1561
rtoes 38.4548
lfemur -31.088 -1.46451 -8.01791
ltibia 18.5963
lfoot -13.1551 19.3626
ltoes -65.7734
324
root 10.5998 16.4379 10.6054 17.6571 -81.9804 2.03051
lowerback 5.41733 -0.651797 -14.1958
upperback 2.18292 -1.64232 -0.0170521
thorax -0.334351 -0.936598 8.05369
lowerneck 3.66285 -10.0344 -1.84301
upperneck -16.4487 -12.4906 12.7329
head -4.55521 -7.07067 4.7917
rclavicle -1.55052e-014 -2.38542e-014
rhumerus -45.6028 -38.9199 -46.4019
rradius 74.4795
rwrist -36.8842
rhand -13.52 -24.9185
rfingers 7.12502
rthumb 12.5919 -54.519
lclavicle -1.55052e-014 -2.38542e-014
lhumerus -27.0329 -40.9819 108.928
lradius 98.3179
lwrist -7.1035
lhand -54.9027 -35.0581
lfingers 7.12502
lthumb -27.2871 -7.01256
rfemur -10.5828 5.17839 -9.74729
rtibia 5.95521
rfoot -2.89223 -45.0782
rtoes 38.0979
lfemur -30.9708 -1.40368 -7.99282
ltibia 18.5505
lfoot -13.3214 19.3031
ltoes -65.6144
325
root 10.5929 16.4397 10.6011 17.1701 -82.1438 2.45363
lowerback 5.47664 -0.530545 -14.3582
upperback 2.19133 -1.50153 -0.056465
thorax -0.38893 -0.864684 8.09823
lowerneck 3.79564 -9.92064 -1.76335
upperneck -16.6576 -12.3255 12.6513
head -4.66561 -6.9977 4.77311
rclavicle -4.37326e-015 3.49861e-014
rhumerus -45.672 -38.9638 -46.3426
rradius 74.4243
rwrist -36.8254
rhand -13.6193 -24.993
rfingers 7.12502
rthumb 12.4962 -54.5994
lclavicle -4.37326e-015 3.49861e-014
lhumerus -27.0793 -41.0947 109.064
lradius 98.3087
lwrist -7.16864
lhand -55.1483 -34.8173
lfingers 7.12502
lthumb -27.522 -6.80888
rfemur -10.6422 5.21085 -9.83034
rtibia 6.09066
rfoot -2.6378 -44.9732
rtoes 37.9387
lfemur -30.7861 -1.33682 -8.06633
ltibia 18.4915
lfoot -13.3277 19.3337
ltoes -65.6942
326
root 10.5869 16.4414 10.6029 16.8667 -82.1849 2.66566
lowerback 5.51681 -0.487949 -14.2724
upperback 2.27036 -1.44583 -0.171628
thorax -0.347324 -0.844345 7.92272
lowerneck 3.68996 -9.88826 -1.64431
upperneck -16.7194 -12.2607 12.7666
head -4.67162 -6.98349 4.78567
rclavicle -3.33958e-014 -4.45278e-014
rhumerus -45.6844 -39.0543 -46.5221
rradius 74.4606
rwrist -36.7722
rhand -13.9376 -24.9239
rfingers 7.12502
rthumb 12.1893 -54.5488
lclavicle -3.33958e-014 -4.45278e-014
lhumerus -27.017 -41.184 108.986
lradius 98.3085
lwrist -7.20069
lhand -55.2062 -34.6823
lfingers 7.12502
lthumb -27.5774 -6.68271
rfemur -10.5989 5.1869 -9.87249
rtibia 6.18567
rfoot -2.49877 -44.9012
rtoes 37.6966
lfemur -30.6241 -1.3963 -8.10443
ltibia 18.4408
lfoot -13.1791 19.4852
ltoes -65.9258
327
root 10.5816 16.4435 10.6093 16.7136 -82.0954 2.71986
lowerback 5.56395 -0.516884 -14.0026
upperback 2.36553 -1.47594 -0.327541
thorax -0.279187 -0.867751 7.60386
lowerneck 3.67265 -9.83461 -1.53311
upperneck -16.785 -12.1751 12.7919
head -4.70129 -6.95326 4.77797
rclavicle -8.34896e-015 -5.24792e-014
rhumerus -45.7011 -39.099 -46.804
rradius 74.5447
rwrist -36.8202
rhand -14.4895 -24.5114
rfingers 7.12502
rthumb 11.6571 -54.1671
lclavicle -8.34896e-015 -5.24792e-014
lhumerus -26.9645 -41.2719 108.785
lradius 98.3635
lwrist -7.15698
lhand -55.1 -34.6436
lfingers 7.12502
lthumb -27.4758 -6.62784
rfemur -10.4315 5.23211 -9.87541
rtibia 6.18107
rfoot -2.736 -44.9042
rtoes 37.9143
lfemur -30.5019 -1.60565 -8.10738
ltibia 18.3945
lfoot -13.1701 19.5954
ltoes -65.9347
328
root 10.5725 16.4456 10.5994 17.3739 -82.2932 2.01009
lowerback 5.49355 -0.407166 -14.029
upperback 2.41824 -1.31946 -0.399584
thorax -0.221486 -0.79737 7.53173
lowerneck 3.67541 -9.85358 -1.39413
upperneck -16.7998 -12.1919 12.7695
head -4.71666 -6.96909 4.75242
rclavicle -2.0276e-014 -3.33958e-014
rhumerus -45.8308 -39.2214 -46.8799
rradius 74.6163
rwrist -36.8824
rhand -14.6788 -24.2354
rfingers 7.12502
rthumb 11.4745 -53.9013
lclavicle -2.0276e-014 -3.33958e-014
lhumerus -26.9776 -41.4228 108.719
lradius 98.3803
lwrist -7.19054
lhand -55.1137 -34.5915
lfingers 7.12502
lthumb -27.4889 -6.5778
rfemur -10.4864 5.62367 -9.76409
rtibia 6.16908
rfoot -3.01392 -44.9749
rtoes 38.2891
lfemur -30.2573 -1.32571 -7.99721
ltibia 18.2322
lfoot -13.0749 19.6331
ltoes -66.0438
329
root 10.5674 16.4468 10.5959 17.4994 -82.2605 1.93812
lowerback 5.4504 -0.387942 -14.0442
upperback 2.4147 -1.28859 -0.428254
thorax -0.208597 -0.782773 7.50711
lowerneck 3.61343 -9.89038 -1.32741
upperneck -16.7219 -12.2413 12.7715
head -4.68334 -6.99341 4.73592
rclavicle -2.10712e-014 -2.94201e-014
rhumerus -45.88 -39.3428 -46.8499
rradius 74.6316
rwrist -36.9007
rhand -14.3883 -24.5042
rfingers 7.12502
rthumb 11.7547 -54.1544
lclavicle -2.10712e-014 -2.94201e-014
lhumerus -27.0318 -41.55 108.771
lradius 98.3493
lwrist -7.2903
lhand -55.3634 -34.5972
lfingers 7.12502
lthumb -27.7277 -6.62174
rfemur -10.5038 5.61326 -9.73935
rtibia 6.14849
rfoot -2.91377 -44.9903
rtoes 38.1677
lfemur -30.2822 -1.20792 -7.99121
ltibia 18.1941
lfoot -12.9274 19.5774
ltoes -66.1853
